<svg height="512pt" viewBox="0 -1 512.0013 512" width="512pt" xmlns="http://www.w3.org/2000/svg"><path d="m295.988281 124.820312c-12.027343 3.914063-32.738281 22.070313-74.191406 13.613282-30.441406-6.210938-60.707031-18.585938-89.953125-36.777344-36.886719-22.945312-72.28125-55.269531-105.195312-96.078125-5.195313-6.441406-14.628907-7.449219-21.070313-2.257813-6.441406 5.199219-7.453125 14.632813-2.257813 21.074219 35.414063 43.90625 73.765626 78.734375 113.992188 103.515625 32.554688 20.054688 66.398438 33.617188 100.597656 40.308594 39.839844 7.796875 60.148438-6.332031 74.738282-11.445312 6.011718-8.832032 12.257812-18.675782 18.320312-28.617188l-.429688-.394531c-4.007812-3.5-9.507812-4.628907-14.550781-2.941407zm0 0"/><path d="m15.40625 480.859375c-.078125 0-.15625 0-.238281 0-8.167969 0-14.851563 6.554687-14.976563 14.75-.128906 8.277344 6.472656 15.089844 14.75 15.21875.984375.015625 1.964844.019531 2.9375.019531 25.941406 0 47.046875-5.46875 63.039063-16.292968-6.195313-7.820313-11.488281-16.414063-15.710938-25.621094-11.503906 8.25-28.191406 12.261718-49.800781 11.925781zm0 0"/><path d="m499.402344 135.636719c-.3125-.050781-31.171875-5.488281-49.785156-32.578125-2.886719-5.15625-19.367188-33.058594-44.894532-46.859375l-16.625-46.207031c-2.066406-5.742188-7.410156-9.660157-13.507812-9.898438-6.089844-.242188-11.734375 3.238281-14.246094 8.800781-10.179688 22.535157-11.972656 45.117188-12.261719 54.289063-4.996093 9.289062-20.347656 37.480468-37.113281 64.972656l36.5625 33.628906 51.097656 47 7.523438-5.75c11.417968 9.289063 25.59375 14.429688 40.515625 14.429688 36.023437 0 65.332031-30.070313 65.332031-67.035156 0-7.382813-5.300781-13.65625-12.597656-14.792969zm0 0"/><path d="m116.035156 343.992188c-20.5625 18.070312-32.34375 44.328124-32.34375 72.148437 0 52.3125 41.386719 94.871094 92.261719 94.871094h141.125l-33.296875-.164063h145.996094c.167968-1.367187.171875-2.765625-.050782-4.160156-3.476562-22.125-18.398437-39.136719-42.007812-47.898438-6.394531-2.371093-2.863281-86.527343-2.863281-86.527343 5.46875-13.550781 7.890625-27.074219 7.820312-43.371094-.117187-27.160156-4.585937-47.707031-13.308593-61.265625l6.164062-30.195312-92.882812-80.65625c-7.222657 10.609374-14.105469 19.753906-19.910157 25.8125zm109.609375 81.207031c-6.496093-30.480469-23.816406-44.300781-24.035156-44.460938-6.640625-4.945312-8.011719-14.335937-3.066406-20.96875 4.941406-6.636719 14.328125-8.011719 20.96875-3.066406 1.476562 1.097656 33.117187 25.300781 37.925781 78.5-9.640625-3.214844-20.445312-6.664063-31.792969-10.003906zm0 0"/></svg>