<?xml version="1.0" encoding="iso-8859-1"?>
<!-- Generator: Adobe Illustrator 19.0.0, SVG Export Plug-In . SVG Version: 6.00 Build 0)  -->
<svg version="1.1" id="Capa_1" xmlns="http://www.w3.org/2000/svg" xmlns:xlink="http://www.w3.org/1999/xlink" x="0px" y="0px"
	 viewBox="0 0 512 512" style="enable-background:new 0 0 512 512;" xml:space="preserve">
<g>
	<g>
		<path d="M486.235,275.855C499.686,285.947,512,276.093,512,265.18c0-17.345,0-69.38,0-69.38c0-4.721-2.222-9.166-5.999-11.999
			l-50.018-37.524V30c8.284-0.001,14.999-6.716,14.999-15s-6.716-15-15-15c-9.109,0-75.322,0-89.992,0c-8.284,0-15,6.716-15,15
			s6.715,14.999,14.999,15v48.763L265.001,3.001C259.667-1,252.333-1,246.999,3.001l-241,180.8C2.222,186.634,0,191.079,0,195.8
			v69.38c0,12.397,14.185,19.364,24.003,11.998L41,264.424V431H15c-8.284,0-15,6.716-15,15v51c0,8.284,6.716,15,15,15h482
			c8.284,0,15-6.716,15-15v-51c0-8.284-6.716-15-15-15h-26V264.425C471,264.425,482.426,272.998,486.235,275.855z M395.989,30
			h29.995v93.749l-29.995-22.498V30z M221.004,431H91.013V256c0-8.284,6.716-15,15-15h99.991c8.284,0,15,6.716,15,15V431z
			 M420.987,392.63c0,8.284-6.716,15-15,15H269.369c-8.284,0-15-6.716-15-15V256c0-8.284,6.716-15,15-15h136.618
			c8.284,0,15,6.716,15,15V392.63z M265.001,72.371c-5.338-4.005-12.681-3.992-18.002,0C231.237,84.195,39.746,227.859,30,235.171
			v-31.872L256,33.752l226,169.547v31.873C361.551,144.788,279.263,83.069,265.001,72.371z"/>
	</g>
</g>
<g>
</g>
<g>
</g>
<g>
</g>
<g>
</g>
<g>
</g>
<g>
</g>
<g>
</g>
<g>
</g>
<g>
</g>
<g>
</g>
<g>
</g>
<g>
</g>
<g>
</g>
<g>
</g>
<g>
</g>
</svg>
